<svg xmlns="http://www.w3.org/2000/svg" width="64" height="64" viewBox="0 0 64 64">
    <circle fill="#D04437" cx="47" cy="17" r="11"/>
    <g transform="translate(-0.2, 0.2)">
        <g transform="matrix(0.5,0.8660254,-0.8660254,0.5,711.26974,-131.41316)" opacity="0.6">
            <path fill="#BED1FB" stroke="#0C41B2" stroke-width="2" stroke-linecap="round" d="M-192.8,682.9
			c-0.4-19.3,12.7-28.2,18.1-27.7c2.5,0.6-1,13.6-10.6,27.7l2.4,0l-5.7,5.5c1.2-0.1,2.7,0.2,2.7,0.2l-3.6,1.1l-3.4-0.9
			c0,0,0.8-0.3,3.1-0.4l-5.8-5.6L-192.8,682.9z"/>
            <path fill="#0C41B2" d="M-180.4,663.3
			c0,0-7.6,9.9-9.3,18.8l-0.9,13.1c0,0.3,0.9,1.3,0.9,1.3s0.7-0.8,0.9-1.3l0.8-13C-185.6,672.4-180.4,663.3-180.4,663.3z"/>
            <path fill="#F79A23" d="M-180.4,663.3
			c2.7-0.8,5.1-3.7,5.4-3.9c0.4-2,0.3-3,0.1-3.5c-0.6-0.1-2.6,0.1-4.1,1.1C-179.8,659.9-180.3,660.7-180.4,663.3z"/>
            <path fill="#D22128" d="M-185.2,673.5l5-0.9
			c-0.6,1.1-1.2,2.3-1.8,3.4l-4.3,0.5C-185.9,675.4-185.6,674.6-185.2,673.5L-185.2,673.5z"/>
            <path fill="#D22128" d="M-190,670.2l3.6,3
			c-0.5,0.9-0.9,1.8-1.3,2.8l-3.3-2.6C-190.8,672.3-190.4,671.2-190,670.2L-190,670.2z"/>
        </g>
        <g opacity="0.9">
            <path fill="#BED1FB" d="M23.9,43c8.8-4.3,15.8-9.3,19.7-13.1c-3.4-0.9-6.3-3.2-8-6.1c-6,1.7-13,6.3-18.2,15.5L15,37.8l2.2,7.7
			c-2.1-1.2-2.9-1.3-2.9-1.3l2.4,2.5l3.7,0.8c0,0-1.1-1-2.2-1.5l7.7-1.9L23.9,43z"/>
            <path fill="#0C41B2" d="M20.5,40.1L13.2,51c-0.2,0.3,0.1,1.6,0.1,1.6s1-0.3,1.4-0.7l7.2-10.8c7-7.3,16.1-12.7,16.1-12.7
			S26.4,33.2,20.5,40.1z"/>
            <path fill="#F79A23"
                  d="M38.7,27.4c-0.2,0.3-0.5,0.7-0.7,1.1c0.8,0.2,1.7,0.2,2.5,0.1C39.8,28.2,39.2,27.8,38.7,27.4z"/>
            <path fill="#D22128"
                  d="M28.7,34.9c-0.9,0.7-1.6,1.3-2.5,2.1l4,1.7c1.1-0.7,2.2-1.4,3.3-2L28.7,34.9L28.7,34.9z"/>
            <path fill="#D22128"
                  d="M23.7,31.9l1.5,3.9c0.9-0.7,1.7-1.3,2.5-1.8l-1.6-4.4C25.3,30.3,24.4,31.1,23.7,31.9z"/>
            <path fill="#0C41B2" d="M44.7,30.1c-0.8-0.1-1.5-0.4-2.2-0.6c-3.6,3.4-10,8.1-19,12.6l-1.7,0.8l1.6,0.9l-5.2,1.3L16.7,40l1,0.6
			l0.5-0.9c5.7-10.3,13.3-13.9,17.8-15.1c-0.4-0.6-0.7-1.2-1.1-1.8c-4.8,1.4-12.3,5.1-18,15l-3.6-2.1l2.3,8
			c-0.7-0.3-1.1-0.4-1.2-0.4l-2.8-0.3l4.7,4.7l7.6,1.7l-2.8-2.6c0,0-0.2-0.1-0.4-0.3l7.9-2L26,43C34.2,38.8,40.9,34,44.7,30.1z"/>
        </g>
        <g transform="translate(-53.906224,9.5030499)">
            <path fill="#BED1FB" stroke="#0C41B2" stroke-width="2" stroke-linecap="round" d="M64,29.5
			C63.6,10.1,76.7,1.2,82.1,1.7c2.5,0.6-1,13.6-10.6,27.7l2.4,0L68.2,35c1.2-0.1,2.7,0.2,2.7,0.2l-3.6,1.1l-3.4-0.9
			c0,0,0.8-0.3,3.1-0.4l-5.8-5.6L64,29.5z"/>
            <path fill="#0C41B2" d="M76.4,9.9
			c0,0-7.6,9.9-9.3,18.8l-0.9,13.1c0,0.3,0.9,1.3,0.9,1.3s0.7-0.8,0.9-1.3l0.8-13C71.3,19,76.4,9.9,76.4,9.9z"/>
            <path fill="#F79A23" d="M76.4,9.9
			c2.7-0.8,5.1-3.7,5.4-3.9c0.4-2,0.3-3,0.1-3.5c-0.6-0.1-2.6,0.1-4.1,1.1C77.1,6.5,76.5,7.3,76.4,9.9z"/>
            <path fill="#D22128" d="M71.7,20.1l5-0.9
			c-0.6,1.1-1.2,2.3-1.8,3.4l-4.3,0.5C70.9,22,71.2,21.2,71.7,20.1L71.7,20.1z"/>
            <path fill="#D22128" d="M66.8,16.8l3.6,3
			c-0.5,0.9-0.9,1.8-1.3,2.8l-3.3-2.6C66,18.9,66.5,17.8,66.8,16.8L66.8,16.8z"/>
        </g>
    </g>
</svg>
